<svg xmlns="http://www.w3.org/2000/svg" xmlns:xlink="http://www.w3.org/1999/xlink" viewBox="0 0 411.71 139.75"><defs><style>.cls-1{fill:url(#radial-gradient);}.cls-2{fill:#06409e;}</style><radialGradient id="radial-gradient" cx="36.59" cy="52.64" r="91.98" gradientTransform="translate(-0.83 1.85) rotate(-0.06)" gradientUnits="userSpaceOnUse"><stop offset="0.44" stop-color="#5bb6ff"/><stop offset="1" stop-color="#06409e"/></radialGradient></defs><title>logo-pdi</title><g id="Layer_2" data-name="Layer 2"><g id="Layer_1-2" data-name="Layer 1"><path class="cls-1" d="M76.45,138.65l.95.69-1.16.11c-2.11.19-4.07.29-6,.3h-.65a69.45,69.45,0,0,1-26.39-5.27l-2-.84h2.2a85.43,85.43,0,0,0,15.43-1.45l.31-.06.15.27A9,9,0,0,0,72,135.59l.27-.17.25.2C73.77,136.64,75.09,137.66,76.45,138.65ZM85.72,63l-.33.19.14.36A81,81,0,0,0,100,87.32l.27.3.33-.24a14.19,14.19,0,0,1,14.23-1.67l.38.16.19-.37a80.87,80.87,0,0,0,5.88-15l.08-.3-.25-.18a5.9,5.9,0,0,1,2.14-10.57l.3-.07,0-.31a81.78,81.78,0,0,0,.69-10.51,81.06,81.06,0,0,0-2.92-21.44L121.1,26l-.52,1A87.59,87.59,0,0,1,85.72,63ZM97.64,90.39l-.23-.26a84.86,84.86,0,0,1-15.26-24.7L82,65l-.43.21a86.8,86.8,0,0,1-16,6l-.3.08,0,.31A20.27,20.27,0,0,1,48.12,90l-.48.07.12.47a80.5,80.5,0,0,0,14.63,29.29l.23.29.32-.17a9,9,0,0,1,11.78,3l.2.31.34-.15a81.2,81.2,0,0,0,22.79-14.82l.3-.28-.26-.32a14.23,14.23,0,0,1-.66-17.08ZM57.76,128.47l.38-.12,0-.38a9,9,0,0,1,1.49-5l.17-.27-.2-.25a84.23,84.23,0,0,1-15.77-32l-.08-.31-.32,0A20.39,20.39,0,0,1,24.76,72.51l0-.31-.3-.07A86.72,86.72,0,0,1,.94,63.29L.35,63l-.06.67C.09,65.87,0,67.93,0,69.94a69.55,69.55,0,0,0,32.8,59.15l.18.06a79.58,79.58,0,0,0,24.78-.69ZM25.18,63.57l.39.09.13-.37A20.32,20.32,0,0,1,43.38,49.61l.32,0,.08-.31A85.28,85.28,0,0,1,76.32,1.08l.95-.69L76.1.29C73.87.09,71.81,0,69.8,0A69.61,69.61,0,0,0,1.91,53.66L1.84,54l.27.17A78.31,78.31,0,0,0,25.18,63.57Zm95,44.79-.3-.17-.23.25a14.2,14.2,0,0,1-18.1,2.35l-.29-.18-.25.23a85,85,0,0,1-24.55,16l-.29.16,0,.31c0,.21,0,.43,0,.64a9.05,9.05,0,0,1-1.12,4.37l-.18.32.29.23a81.79,81.79,0,0,0,7.7,5.53l.15.09.17,0a69.72,69.72,0,0,0,42.57-26.68l.33-.43-.49-.23C123.77,110.27,121.93,109.34,120.16,108.36Zm6.63-79-1.27-1.79.49,2.14a85.07,85.07,0,0,1,2.13,18.83,85.64,85.64,0,0,1-.73,11.17l0,.28.24.15a5.86,5.86,0,0,1,2.84,5,5.92,5.92,0,0,1-5,5.84l-.28,0-.08.28a84.66,84.66,0,0,1-6.43,16.33l-.16.3.25.23a14.28,14.28,0,0,1,4.71,10.56,14.13,14.13,0,0,1-1.27,5.88L122,105l.36.19c1.7.93,3.55,1.83,5.64,2.77l.34.15.2-.31a69.8,69.8,0,0,0-1.74-78.45ZM47.72,49.24l-.12.47.48.07a20.41,20.41,0,0,1,15.8,12.65l.15.37.38-.11A78.54,78.54,0,0,0,78.91,57l.32-.16-.09-.34A84.7,84.7,0,0,1,76.29,39.9l0-.29-.27-.1a5.89,5.89,0,0,1,0-11.1l.27-.1,0-.29A84.32,84.32,0,0,1,82,2.77l.51-1.3-1.17.78A81.27,81.27,0,0,0,47.72,49.24ZM80.1,28.45l.28.12a5.9,5.9,0,0,1,0,10.78l-.28.13,0,.31a81.07,81.07,0,0,0,2.39,14.6l.15.56.5-.3a79.73,79.73,0,0,0,32.51-37.12l.13-.29-.24-.21a70,70,0,0,0-28.77-15L86.42,2l-.15.35a80.5,80.5,0,0,0-6.16,25.82Z"/><path class="cls-2" d="M407.41,0h-6.33a4.2,4.2,0,0,0-4.3,4.08V135.66a4.2,4.2,0,0,0,4.3,4.08h6.33a4.2,4.2,0,0,0,4.3-4.08V4.09A4.2,4.2,0,0,0,407.41,0Z"/><path class="cls-2" d="M311.07,0H282.13a4.43,4.43,0,0,0-4.3,4.54V108.12a4.43,4.43,0,0,0,4.3,4.54h6.33a4.43,4.43,0,0,0,4.3-4.54V19.49a4.43,4.43,0,0,1,4.3-4.54h14c28.47,0,51.63,24.64,51.63,54.93s-23.16,54.93-51.63,54.93H282.13a4.43,4.43,0,0,0-4.3,4.54v5.86a4.43,4.43,0,0,0,4.3,4.54h28.95c36.77,0,66.57-31.28,66.57-69.87h0C377.64,31.28,347.84,0,311.07,0Z"/><path class="cls-2" d="M222.72,0h-59.5a4.32,4.32,0,0,0-4.34,4.3V135.44a4.32,4.32,0,0,0,4.34,4.3h6.4a4.32,4.32,0,0,0,4.34-4.3V75.33h0V19.24a4.32,4.32,0,0,1,4.34-4.3h44.42c11.52,0,20.89,10.2,20.89,22.73s-9.37,22.73-20.89,22.73H190.54a4.32,4.32,0,0,0-4.34,4.3V71a4.32,4.32,0,0,0,4.34,4.3h32.18c19.84,0,36-16.9,36-37.66S242.55,0,222.72,0Z"/></g></g></svg>