<svg width="150" height="150" viewBox="0 0 150 150" fill="none" xmlns="http://www.w3.org/2000/svg">
<rect width="150" height="150" fill="white"/>
<path d="M75 0L91.2234 25.0695L119.084 14.3237L117.473 44.1413L146.329 51.8237L127.5 75L146.329 98.1763L117.473 105.859L119.084 135.676L91.2234 124.93L75 150L58.7766 124.93L30.9161 135.676L32.5266 105.859L3.67076 98.1763L22.5 75L3.67076 51.8237L32.5266 44.1413L30.9161 14.3237L58.7766 25.0695L75 0Z" fill="#00FFFF"/>
<path d="M71.9805 53.3438V82.3477C71.9609 86.3711 70.6914 89.6621 68.1719 92.2207C65.6719 94.7793 62.2734 96.2148 57.9766 96.5273L56.4824 96.5859C51.8145 96.5859 48.0938 95.3262 45.3203 92.8066C42.5469 90.2871 41.1406 86.8203 41.1016 82.4062V53.3438H46.668V82.2305C46.668 85.3164 47.5176 87.7188 49.2168 89.4375C50.916 91.1367 53.3379 91.9863 56.4824 91.9863C59.666 91.9863 62.0977 91.1367 63.7773 89.4375C65.4766 87.7383 66.3262 85.3457 66.3262 82.2598V53.3438H71.9805ZM86.4824 79.3008V96H80.8574V53.3438H96.5898C101.258 53.3438 104.91 54.5352 107.547 56.918C110.203 59.3008 111.531 62.4551 111.531 66.3809C111.531 70.5215 110.232 73.7148 107.635 75.9609C105.057 78.1875 101.355 79.3008 96.5312 79.3008H86.4824ZM86.4824 74.7012H96.5898C99.5977 74.7012 101.902 73.998 103.504 72.5918C105.105 71.166 105.906 69.1152 105.906 66.4395C105.906 63.9004 105.105 61.8691 103.504 60.3457C101.902 58.8223 99.7051 58.0312 96.9121 57.9727H86.4824V74.7012Z" fill="white"/>
</svg>
